<svg xmlns="http://www.w3.org/2000/svg" viewBox="0 0 640 640" preserveAspectRatio="xMidYMid meet"><g transform="translate(96,64)"><!--! Font Awesome Pro 7.0.1 by @fontawesome - https://fontawesome.com License - https://fontawesome.com/license (Commercial License) Copyright 2025 Fonticons, Inc. --><path fill="#1ebeff" d="M248 56c0-13.3-10.7-24-24-24s-24 10.7-24 24l0 176-176 0c-13.3 0-24 10.7-24 24s10.7 24 24 24l176 0 0 176c0 13.3 10.7 24 24 24s24-10.7 24-24l0-176 176 0c13.3 0 24-10.7 24-24s-10.7-24-24-24l-176 0 0-176z"/></g></svg>