<svg xmlns="http://www.w3.org/2000/svg" viewBox="0 0 512 512" preserveAspectRatio="xMidYMid meet">
  <circle cx="256" cy="256" r="120" fill="#1ebeff"/>
  <path fill="#1ebeff" d="M256 24c13.3 0 24 10.7 24 24v64c0 13.3-10.7 24-24 24s-24-10.7-24-24V48c0-13.3 10.7-24 24-24zm0 352c13.3 0 24 10.7 24 24v64c0 13.3-10.7 24-24 24s-24-10.7-24-24v-64c0-13.3 10.7-24 24-24zm208-120c0 13.3-10.7 24-24 24h-64c-13.3 0-24-10.7-24-24s10.7-24 24-24h64c13.3 0 24 10.7 24 24zM160 256c0 13.3-10.7 24-24 24H72c-13.3 0-24-10.7-24-24s10.7-24 24-24h64c13.3 0 24 10.7 24 24zm264.6 151.4c9.4 9.4 9.4 24.6 0 33.9s-24.6 9.4-33.9 0l-45.3-45.3c-9.4-9.4-9.4-24.6 0-33.9 9.4-9.4 24.6-9.4 33.9 0l45.3 45.3zM166.6 166.6c9.4 9.4 9.4 24.6 0 33.9L121.4 245.8c-9.4 9.4-24.6 9.4-33.9 0s-9.4-24.6 0-33.9l45.3-45.3c9.4-9.4 24.6-9.4 33.9 0zm0 178.8c9.4-9.4 24.6-9.4 33.9 0s9.4 24.6 0 33.9l-45.3 45.3c-9.4 9.4-24.6 9.4-33.9 0s-9.4-24.6 0-33.9l45.3-45.3zm211.4-211.4 45.3-45.3c9.4-9.4 24.6-9.4 33.9 0s9.4 24.6 0 33.9l-45.3 45.3c-9.4 9.4-24.6 9.4-33.9 0-9.4-9.4-9.4-24.6 0-33.9z"/>
</svg>
